External Loads File
version=1
nRows=46
nColumns=13
Range=5.000000e-03-10 seconds
endheader
time 	forceRightX 	forceRightY 	forceRightZ 	pointRightX 	pointRightY 	pointRightZ 	forceLeftX 	forceLeftY 	forceLeftZ 	pointLeftX 	pointLeftY 	pointLeftZ 		
2.505000 -34.320158 -22.578011 -0.000000 0.149135 0.380236 -0.139830 -479.141711 1364.382348 -0.000000 0.403593 0.250593 -0.370716
2.510000 -36.619125 -24.735686 -0.000000 0.152299 0.384266 -0.139665 -479.009279 1406.904939 -0.000000 0.401689 0.245873 -0.370923
2.515000 -37.460023 -25.396501 -0.000000 0.155597 0.388257 -0.139521 -478.847657 1448.542084 -0.000000 0.399867 0.241288 -0.370897
2.520000 -37.318579 -24.537584 -0.000000 0.158967 0.392265 -0.139372 -477.716288 1490.300630 -0.000000 0.397856 0.236744 -0.370831
2.525000 -36.584430 -22.240667 -0.000000 0.162534 0.396322 -0.139233 -475.426733 1532.844680 -0.000000 0.395892 0.232142 -0.370861
2.530000 -35.538727 -18.728588 -0.000000 0.166189 0.400144 -0.139150 -473.315224 1576.243884 -0.000000 0.393703 0.227618 -0.371079
2.535000 -34.409409 -14.265852 -0.000000 0.169933 0.404162 -0.139061 -470.961453 1620.969502 -0.000000 0.391552 0.223331 -0.370916
2.540000 -33.371741 -9.193508 -0.000000 0.173930 0.407955 -0.138965 -467.544744 1667.410462 -0.000000 0.389346 0.218914 -0.370924
2.545000 -32.579821 -3.976002 -0.000000 0.177923 0.411624 -0.138884 -464.491964 1715.114757 -0.000000 0.386981 0.214734 -0.370942
2.550000 -32.217976 0.939449 -0.000000 0.182137 0.415064 -0.138854 -460.305554 1764.182841 -0.000000 0.384529 0.210592 -0.370850
2.555000 -32.463366 5.119182 -0.000000 0.186553 0.418585 -0.138667 -452.804472 1814.476067 -0.000000 0.382032 0.206378 -0.370752
2.560000 -33.501713 8.119636 -0.000000 0.191125 0.421863 -0.138473 -443.645011 1864.482476 -0.000000 0.379433 0.202314 -0.370762
2.565000 -35.498370 9.722320 -0.000000 0.196221 0.425056 -0.138361 -429.027336 1913.683351 -0.000000 0.376651 0.198367 -0.370727
2.570000 -38.651517 9.697460 -0.000000 0.200417 0.428312 -0.138505 -415.250505 1958.917672 -0.000000 0.373774 0.194456 -0.370702
2.575000 -43.067282 8.270094 -0.000000 0.205390 0.431312 -0.138303 -394.553967 1999.838590 -0.000000 0.370805 0.190634 -0.370605
2.580000 -48.855323 5.749237 -0.000000 0.210923 0.434184 -0.138052 -366.122629 2034.171371 -0.000000 0.367634 0.186895 -0.370596
2.585000 -56.069789 2.513031 -0.000000 0.216228 0.437088 -0.137761 -334.578790 2058.594933 -0.000000 0.364332 0.183386 -0.370599
2.590000 -64.616212 -0.760986 -0.000000 0.221641 0.439697 -0.137563 -298.574956 2071.004467 -0.000000 0.360867 0.179976 -0.370755
2.595000 -74.245050 -3.366211 -0.000000 0.227041 0.442086 -0.137508 -259.158073 2069.060891 -0.000000 0.357233 0.176742 -0.370789
2.600000 -84.560352 -4.527547 -0.000000 0.232544 0.444781 -0.137401 -215.002592 2051.044229 -0.000000 0.353516 0.173577 -0.370915
2.605000 -95.043942 -3.860198 -0.000000 0.238024 0.446727 -0.137172 -171.668832 2014.919538 -0.000000 0.349700 0.170762 -0.370997
2.610000 -105.137148 -0.822698 -0.000000 0.243550 0.448892 -0.137005 -126.262782 1960.106261 -0.000000 0.345764 0.168004 -0.371090
2.615000 -114.276661 4.553347 -0.000000 0.248985 0.451030 -0.136820 -83.223041 1885.995327 -0.000000 0.341859 0.165551 -0.371179
2.620000 -121.978537 12.232668 -0.000000 0.254440 0.453035 -0.136648 -42.018828 1793.047958 -0.000000 0.337812 0.163261 -0.371331
2.625000 -127.908291 21.713441 -0.000000 0.259639 0.454890 -0.136520 -6.108247 1682.308440 -0.000000 0.333739 0.161129 -0.371530
2.630000 -131.846868 32.736978 -0.000000 0.265033 0.456833 -0.135930 26.202767 1555.697245 -0.000000 0.329628 0.159251 -0.371648
2.635000 -133.811442 44.607850 -0.000000 0.270094 0.458658 -0.135718 50.952707 1415.926853 -0.000000 0.325518 0.157652 -0.371822
2.640000 -133.834690 57.176193 -0.000000 0.275196 0.460460 -0.135470 69.958580 1266.390693 -0.000000 0.321391 0.156167 -0.372040
2.645000 -132.090150 70.168677 -0.000000 0.280233 0.462158 -0.135161 82.522469 1111.099567 -0.000000 0.317222 0.155070 -0.372173
2.650000 -128.748567 83.565658 -0.000000 0.285214 0.463817 -0.134904 89.655679 954.361314 -0.000000 0.312892 0.154021 -0.372390
2.655000 -124.138956 97.254444 -0.000000 0.290116 0.465470 -0.134595 91.285980 800.691292 -0.000000 0.308625 0.153097 -0.372745
2.660000 -118.466108 111.402373 -0.000000 0.295001 0.466949 -0.134364 89.406577 654.154580 -0.000000 0.304164 0.152520 -0.373060
2.665000 -111.986168 126.059890 -0.000000 0.299955 0.468281 -0.134083 85.313191 518.197266 -0.000000 0.299550 0.152000 -0.373412
2.670000 -105.082792 141.124190 -0.000000 0.304884 0.469497 -0.133933 79.876528 395.345877 -0.000000 0.294952 0.151734 -0.373791
2.675000 -97.993077 156.620438 -0.000000 0.309680 0.470577 -0.133763 74.608701 286.870763 -0.000000 0.290207 0.151666 -0.374134
2.680000 -90.671867 172.735174 -0.000000 0.314877 0.471556 -0.133790 70.996257 192.835658 -0.000000 0.285357 0.151747 -0.374478
2.685000 -83.878972 189.238536 -0.000000 0.319248 0.472442 -0.133626 69.151837 112.700580 -0.000000 0.280346 0.152064 -0.374737
2.690000 -77.001353 206.593045 -0.000000 0.323940 0.472922 -0.133667 70.162812 44.657427 -0.000000 0.275179 0.152661 -0.375098
2.695000 -70.083787 224.815706 -0.000000 0.328574 0.473390 -0.133791 73.638010 -13.181541 -0.000000 0.269715 0.153787 -0.375596
2.700000 -62.885375 243.926564 -0.000000 0.333298 0.473695 -0.133941 78.789382 -62.715110 -0.000000 0.263909 0.155041 -0.375795
2.705000 -55.498294 263.743512 -0.000000 0.337986 0.473798 -0.134056 84.457378 -105.210375 -0.000000 0.258007 0.156434 -0.375720
2.710000 -47.982998 284.105562 -0.000000 0.342462 0.473845 -0.133943 89.356790 -141.235472 -0.000000 0.252210 0.158392 -0.375809
2.715000 -40.384783 304.988281 -0.000000 0.346873 0.473668 -0.133996 92.327394 -170.763196 -0.000000 0.246776 0.160236 -0.375940
2.720000 -33.089428 326.550268 -0.000000 0.351013 0.473288 -0.133931 92.855518 -193.430653 -0.000000 0.241987 0.161926 -0.375897
2.725000 -25.779952 349.253430 -0.000000 0.354927 0.472637 -0.133937 90.692363 -209.325285 -0.000000 0.237543 0.163450 -0.375909
2.730000 -18.368742 373.667727 -0.000000 0.358570 0.471929 -0.133827 86.408479 -218.970008 -0.000000 0.233219 0.164896 -0.376080
